<?xml version="1.0" encoding="UTF-8"?>
<!-- Created with Inkscape (http://www.inkscape.org/) -->
<svg width="120mm" height="120mm" version="1.1" viewBox="0 0 120 120" xmlns="http://www.w3.org/2000/svg" xmlns:cc="http://creativecommons.org/ns#" xmlns:dc="http://purl.org/dc/elements/1.1/" xmlns:rdf="http://www.w3.org/1999/02/22-rdf-syntax-ns#">
 <metadata>
  <rdf:RDF>
   <cc:Work rdf:about="">
    <dc:format>image/svg+xml</dc:format>
    <dc:type rdf:resource="http://purl.org/dc/dcmitype/StillImage"/>
   </cc:Work>
  </rdf:RDF>
 </metadata>
 <g transform="translate(-43.204 -85.32)">
  <g transform="translate(126.12 -.65106)" stroke="#000" stroke-linecap="round">
   <path d="m37.047 145.97a59.967 59.967 0 0 1-59.715 59.967 59.967 59.967 0 0 1-60.217-59.462 59.967 59.967 0 0 1 59.208-60.467 59.967 59.967 0 0 1 60.715 58.954" fill="#999" fill-opacity=".77064" opacity=".99" stroke-width=".065476"/>
   <path transform="scale(.26458)" d="m-87.938 395.13a103.81 103.81 0 0 0-102.49 104.67 103.81 103.81 0 0 0 41.754 82.238 141.62 141.62 0 0 0-79.562 128.3 141.62 141.62 0 0 0 1.6582 19.338 226.65 226.65 0 0 0 11.152 8.4023 132.17 132.17 0 0 1-3.3692-27.82 132.17 132.17 0 0 1 79.32-122.1 103.81 103.81 0 0 0 53.285 14.58 103.81 103.81 0 0 0 52.43-14.596 132.17 132.17 0 0 1 79.289 118.79l0.01953 2.2227a132.17 132.17 0 0 1-3.2422 28.641 226.65 226.65 0 0 0 11.043-7.8965 141.62 141.62 0 0 0 1.6406-20.744l-0.01953-2.3828a141.62 141.62 0 0 0-79.412-124.84 103.81 103.81 0 0 1-0.25977 0.17578 103.81 103.81 0 0 0 41.883-83.166l-0.01367-1.748a103.81 103.81 0 0 0-105.1-102.05zm0.11914 9.4355a94.37 94.37 0 0 1 95.547 92.775l0.013672 1.5879a94.37 94.37 0 0 1-93.973 94.369 94.37 94.37 0 0 1-94.764-93.576 94.37 94.37 0 0 1 93.176-95.156z" fill="#e6e6e6" opacity=".99" stroke-width=".25985"/>
  </g>
 </g>
</svg>
