<svg version="1.1" viewBox="0 0 264.19 258.55" xml:space="preserve" xmlns="http://www.w3.org/2000/svg"><defs><clipPath id="clipPath22092"><path d="m0 0h181.94v181.94h-181.94z"/></clipPath></defs><g transform="matrix(1.3333 0 0 -1.3333 0 258.55)"><g transform="translate(16.006,11.778)"><path d="m0 0v181.94m40.431-181.94v181.94m40.431-181.94v181.94m40.431-181.94v181.94m40.431-181.94v181.94" fill="none" stroke="#bfbfbf" stroke-miterlimit="10" stroke-width=".3985"/><path d="m0 0h181.94m-181.94 40.431h181.94m-181.94 40.431h181.94m-181.94 40.431h181.94m-181.94 40.431h181.94" fill="none" stroke="#bfbfbf" stroke-miterlimit="10" stroke-width=".3985"/><path d="m0 0v4.252m40.431-4.252v4.252m40.431-4.252v4.252m40.431-4.252v4.252m40.431-4.252v4.252m-161.72 177.69v-4.252m40.431 4.252v-4.252m40.431 4.252v-4.252m40.431 4.252v-4.252m40.431 4.252v-4.252" fill="none" stroke="#808080" stroke-miterlimit="10" stroke-width=".19925"/><path d="m0 0h4.252m-4.252 40.431h4.252m-4.252 40.431h4.252m-4.252 40.431h4.252m-4.252 40.431h4.252m177.69-161.72h-4.252m4.252 40.431h-4.252m4.252 40.431h-4.252m4.252 40.431h-4.252m4.252 40.431h-4.252" fill="none" stroke="#808080" stroke-miterlimit="10" stroke-width=".19925"/><path d="m0 0v181.94h181.94v-181.94z" fill="none" stroke="#000" stroke-miterlimit="10" stroke-width=".3985"/><g clip-path="url(#clipPath22092)" stroke-width="1.5"><path d="m35.41 1.0633s-0.04932-0.00584-0.06669-0.00808c-0.01738-0.00223-0.03986-0.00165-0.05864-0.00809s-0.06253-0.03279-0.07681-0.03841c-0.0143-0.0056-0.01761-3.5e-4 -0.02629-0.00203-0.00868-0.00167-0.02517-0.00842-0.03638-0.0101-0.01121-0.00166-0.03215 5.1e-4 -0.04448-0.00201s-0.03128-0.01225-0.04446-0.01618c-0.01319-0.00392-0.03289-0.01074-0.05055-0.01212-0.01766-0.00141-0.05437 0.00118-0.07682 2e-3 -0.02243 8.5e-4 -0.05882 1.3e-4 -0.0849 0.00405s-0.0686 0.01138-0.1031 0.02426c-0.03448 0.01289-0.09676 0.04069-0.14556 0.06874-0.04879 0.02805-0.14086 0.08603-0.2062 0.13343-0.06534 0.04739-0.17647 0.13615-0.26482 0.20822-0.08833 0.07206-0.25584 0.20839-0.37196 0.31132-0.11611 0.10292-0.31659 0.29624-0.46497 0.43058-0.14837 0.13433-0.41007 0.3661-0.60444 0.53775-0.19437 0.17163-0.54686 0.47898-0.7965 0.69945-0.24963 0.22045-0.6936 0.60284-1.0027 0.88947-0.30909 0.28666-0.85259 0.78586-1.2251 1.1766-0.37248 0.39072-1.0046 1.0563-1.4596 1.6395-0.45495 0.58313-1.2394 1.6285-1.8194 2.5633-0.58005 0.93486-1.6232 2.6975-2.3612 4.1745-0.73795 1.477-2.0384 4.2243-2.9575 6.471-0.91917 2.2467-2.5567 6.4414-3.6671 9.7217-1.1104 3.2803-3.1212 9.4097-4.3362 13.92-1.2151 4.5108-3.2403 12.888-4.4212 18.59-1.1808 5.7026-3.1219 16.095-4.0896 22.51-0.96768 6.4148-2.3706 17.383-2.8848 23.723-0.51414 6.3399-0.94221 16.373-0.82075 21.97 0.12144 5.5968 0.85798 14.065 1.6961 18.368s2.865 10.101 4.3443 12.645c1.4793 2.5437 4.4297 4.8885 6.3174 5.6887 1.8877 0.80021 5.2244 0.48358 7.2877 0.0788 2.0633-0.40474 5.512-1.9924 7.5829-2.996 2.0708-1.0036 5.3492-2.9789 7.3423-4.2372 1.9931-1.2582 5.0988-3.4212 7.0229-4.8315 1.9242-1.4103 4.9573-3.7939 6.845-5.3329s4.8898-4.1169 6.7601-5.7594c1.8703-1.6425 4.857-4.3603 6.7197-6.0788 1.8627-1.7185 4.8456-4.5357 6.7055-6.3073 1.8599-1.7715 4.8423-4.6571 6.6994-6.4609 1.8571-1.8038 4.8349-4.7211 6.6853-6.5397 1.8504-1.8187 4.8199-4.7542 6.6509-6.5681 1.831-1.8139 4.7546-4.7226 6.5458-6.5054 1.7912-1.7828 4.6318-4.6178 6.3639-6.3436s4.4661-4.4494 6.1193-6.095c1.6532-1.6456 4.2453-4.2217 5.7958-5.7655s3.9666-3.9526 5.3794-5.3612c1.4128-1.4086 3.5478-3.5401 4.8032-4.7911 1.2555-1.251 3.1458-3.1312 4.2453-4.225 1.0995-1.0939 2.7413-2.727 3.6792-3.659 0.93796-0.93206 2.3006-2.2825 3.0809-3.0586s1.9036-1.8975 2.5431-2.535c0.6395-0.63755 1.5466-1.5428 2.066-2.06 0.51945-0.51723 1.2544-1.2465 1.6779-1.6678 0.42352-0.42129 1.0226-1.018 1.3746-1.3686 0.35201-0.3506 0.87239-0.86888 1.1624-1.1583 0.29002-0.28946 0.69368-0.69426 0.92787-0.92791 0.2342-0.23364 0.57361-0.57038 0.76011-0.75607 0.18651-0.18567 0.43952-0.43804 0.58423-0.5822 0.14473-0.14416 0.34587-0.34411 0.45891-0.45686 0.11302-0.11275 0.2708-0.27083 0.35579-0.35581 0.085-0.08497 0.19447-0.19447 0.25673-0.25672 0.0622-0.06226 0.14352-0.14353 0.19205-0.19205 0.0485-0.04852 0.11701-0.11702 0.15768-0.15769 0.0407-0.04066 0.099-0.099 0.13545-0.13545 0.0365-0.03645 0.0943-0.09425 0.12735-0.12735 0.0331-0.03309 0.0873-0.08736 0.11118-0.11119 0.0239-0.02383 0.0469-0.0469 0.0607-0.06065 0.0137-0.01375 0.0305-0.03055 0.0384-0.03841 8e-3 -0.0078 0.0157-0.01567 0.0182-0.01819 3e-3 -0.0025 0 0 0 0" fill="none" stroke="#000" stroke-width="1.125"/><g transform="translate(64.491,57.962)" stroke-width="1.5"><g stroke-width="1.5"><g transform="translate(-80.497,-69.74)" stroke-width="1.5"><text transform="matrix(1,0,0,-1,80.497,69.74)" fill="#000000" font-family="LinLibertineT" font-size="7.9701px" stroke-width="1.5"><tspan x="0" y="0" font-family="'Linux Libertine O'" stroke-width="1.5">E</tspan></text></g></g></g><g fill="none" stroke-width="1.5"><path d="m129.38 66.711-68.733 54.582-30.323-109.16 99.056 54.582" stroke="#1f77b4"/><path d="m67.383 67.377s9.1839 19.162 11.349 24.101c2.1651 4.9388 3.4479 9.3132 4.2554 11.495 0.80751 2.1814 1.1527 3.5612 1.5647 4.2271 0.41203 0.66586 0.92843 0.72018 1.405 0.5721 0.47653-0.14809 1.3686-0.9635 2.0296-1.6395 0.6611-0.67598 1.9046-2.1644 2.7352-3.2325 0.8305-1.0681 2.3192-3.0954 3.2507-4.4656 0.93147-1.3702 2.5208-3.8129 3.4629-5.4097 0.94217-1.5968 2.4723-4.3438 3.3275-6.099 0.85519-1.7553 2.1642-4.7007 2.8362-6.5519 0.67203-1.8512 1.6032-4.8985 2.0074-6.7904 0.40417-1.8919 0.83302-4.959 0.90566-6.845 0.0726-1.886-0.0864-4.9038-0.38207-6.748-0.29564-1.8442-1.0792-4.7678-1.7487-6.5438s-2.0601-4.5685-3.0768-6.2567c-1.0168-1.6882-2.9423-4.3255-4.2513-5.911-1.309-1.5856-3.6577-4.0454-5.1833-5.5168-1.5256-1.4714-4.1571-3.7408-5.812-5.0883-1.6549-1.3475-4.4188-3.4077-6.1152-4.6233-1.6964-1.2156-4.4518-3.0585-6.1112-4.1381-1.6594-1.0796-4.2883-2.7002-5.8484-3.6429-1.5601-0.9427-3.978-2.3421-5.3956-3.1516s-3.5704-1.998-4.8214-2.6826c-1.251-0.68467-3.1177-1.6815-4.1947-2.252-1.077-0.57051-2.6595-1.3909-3.568-1.8598-0.90849-0.46896-2.2267-1.1388-2.9798-1.5202-0.75311-0.38145-1.8327-0.92198-2.4481-1.2291-0.61537-0.30713-1.4902-0.73937-1.9872-0.9845-0.49701-0.24513-1.1973-0.58797-1.595-0.78235-0.39773-0.19437-0.95573-0.46518-1.2716-0.61859-0.31581-0.15343-0.75564-0.36687-1.0047-0.4872-0.24907-0.12032-0.59494-0.2861-0.79044-0.38007-0.19549-0.09396-0.46574-0.22369-0.6186-0.29716-0.15285-0.07347-0.36395-0.17554-0.48315-0.23247s-0.28346-0.13388-0.376-0.17792c-0.09256-0.04402-0.21931-0.10527-0.2911-0.13946-0.0718-0.03421-0.17089-0.0808-0.22642-0.10715-0.05554-0.02636-0.13095-0.06242-0.17386-0.08288-0.04289-0.02047-0.10235-0.049-0.13545-0.0647-0.03309-0.0157-0.07787-0.03645-0.10309-0.04851-0.02523-0.01205-0.05922-0.02888-0.07884-0.03842-0.01962-0.00952-0.04753-0.02303-0.06267-0.0303-0.01513-0.0073-0.035-0.01693-0.04649-0.02225-0.01151-0.00533-0.02744-0.01198-0.03641-0.01618-0.00895-0.00419-0.02127-0.01078-0.02829-0.01414-7e-3 -0.00338-0.0169-0.0076-0.02223-0.01012-0.00532-0.00252-0.01225-0.00612-0.01617-0.00808-0.00393-0.00198-0.00907-0.00468-0.01213-0.00608-0.00307-0.00139-0.00788-0.00293-0.01012-0.00404-0.0022-0.0011-0.0044-0.00321-0.0061-0.00404s-0.0047-0.00145-0.0061-2e-3 -0.0029-0.0015-4e-3 -0.00205c-0.0011-5.3e-4 -0.0032-0.00172-4e-3 -2e-3 -8.4e-4 -2.7e-4 -0.0015 2.8e-4 -2e-3 0-5.5e-4 -2.7e-4 -0.0015-0.00175-2e-3 -0.00203-5.5e-4 -2.6e-4 -0.0017 2.8e-4 -2e-3 0-2.7e-4 -2.6e-4 2.7e-4 -0.00175 0-0.00203-2.7e-4 -2.7e-4 -0.0018 0-2e-3 0-2.7e-4 0 0 0 0 0s2.8e-4 0 0 0h-2e-3c-2.8e-4 0 0 0 0 0s-2.8e-4 0 0 0h2e-3c2.8e-4 0 0 0 0 0" stroke="#ff7f0e"/><path d="m67.383 67.377s9.1919 19.03 11.351 24.105c2.1592 5.0754 3.5366 9.9125 4.2109 12.475 0.67429 2.5625 0.63939 4.7118 0.64891 5.9939 0.0095 1.2821-0.37178 2.5146-0.58017 3.2466s-0.65846 1.5565-0.92184 2.0296c-0.26337 0.47317-0.71024 1.0573-0.97641 1.3807-0.26616 0.32339-0.68709 0.73361-0.94205 0.95014-0.25494 0.21652-0.65181 0.48512-0.89554 0.6105-0.24375 0.12536-0.6239 0.25696-0.86119 0.29313-0.23727 0.0362-0.61121 0.0277-0.84906-0.0323-0.23784-0.06-0.61726-0.2289-0.86522-0.40027-0.24794-0.17137-0.65285-0.52947-0.92183-0.83492-0.26898-0.30543-0.7142-0.89647-1.0168-1.3666-0.30264-0.47009-0.81326-1.3487-1.1644-2.0216-0.35117-0.67288-0.95118-1.9079-1.3666-2.8282-0.41539-0.92027-1.132-2.5915-1.6274-3.8046-0.49535-1.2131-1.3548-3.394-1.9427-4.9387-0.58789-1.5447-1.607-4.2969-2.2945-6.1941-0.68746-1.8972-1.8767-5.2412-2.6604-7.4798-0.78368-2.2386-2.1259-6.1288-2.9879-8.6543-0.86194-2.5255-2.3162-6.8352-3.2244-9.5478-0.90821-2.7126-2.4084-7.2371-3.3214-10.003-0.91299-2.7656-2.3856-7.2552-3.2587-9.9299-0.87316-2.6747-2.2392-6.8898-3.0344-9.3477-0.79517-2.4579-2.0048-6.2134-2.6968-8.3672-0.69196-2.1538-1.7129-5.3469-2.2904-7.1563-0.5775-1.8094-1.4063-4.4181-1.872-5.8848-0.46561-1.4666-1.1192-3.5315-1.4838-4.686-0.36461-1.1545-0.86511-2.7473-1.1442-3.6348-0.27907-0.88746-0.65743-2.092-0.86725-2.7615-0.2098-0.6695-0.48919-1.5661-0.64486-2.064s-0.36295-1.158-0.4771-1.5243-0.26295-0.8486-0.34569-1.1159c-0.08272-0.26729-0.19066-0.61683-0.25067-0.81064-0.06003-0.19381-0.13875-0.4463-0.18194-0.58624-0.04319-0.13995-0.09855-0.32184-0.12938-0.42251-0.03084-0.10068-0.07085-0.23116-0.09299-0.30324-0.02215-0.07207-0.05074-0.16471-0.06671-0.21631-0.01598-0.05159-0.03731-0.11893-0.04853-0.15565-0.01121-0.03673-0.02449-0.08309-0.03233-0.10917-0.00784-0.02607-0.01866-0.06004-0.02426-0.07884-0.00562-0.01879-0.01225-0.04315-0.01617-0.05661-0.00393-0.01344-0.00907-0.03088-0.01214-0.04042-0.00306-0.00952-0.00787-0.02159-0.01011-0.02831-0.00223-0.00671-0.00467-0.01545-0.00606-0.02021-0.0014-0.00476-0.0032-0.01079-4e-3 -0.01415-8.4e-4 -0.00337-0.0015-0.00759-2e-3 -0.01011-5.5e-4 -0.00252-0.0014-0.00641-2e-3 -0.00809-5.5e-4 -0.00168-0.0018-0.00293-2e-3 -0.00405-2.7e-4 -0.00111 2.8e-4 -0.00318 0-0.00402-2.7e-4 -8.4e-4 -0.0017-0.0015-2e-3 -0.00205-2.8e-4 -5.3e-4 0-0.00145 0-2e-3v-0.00203 0-0.00203 0s-2.8e-4 0 0 0h2e-3c2.8e-4 0 0 0 0 0" stroke="#2ca02c"/></g><g transform="translate(5.2577 31.08)" stroke-width="1.5"><g transform="translate(64.491,57.962)" stroke-width="1.5"><g stroke-width="1.5"><g transform="translate(-80.497,-69.74)" font-family="LinLibertineT" font-size="7.9701px" stroke-width="1.5"><text transform="scale(1,-1)" x="80.499954" y="-76.019363" fill="#000000"><tspan x="80.499954" y="-76.019363" font-family="'Linux Libertine O'" font-style="italic" stroke-width="1.5">d=1</tspan></text><text transform="scale(1,-1)" x="91.119225" y="-101.40389" fill="#2c852c"><tspan x="91.119225" y="-101.40389" fill="#2c852c" font-family="'Linux Libertine O'" font-style="italic" stroke-width="1.5">d=10</tspan></text><text transform="scale(1,-1)" x="97.597984" y="-53.561169" fill="#ff700e"><tspan x="97.597984" y="-53.561169" fill="#ff700e" font-family="'Linux Libertine O'" font-style="italic" stroke-width="1.5">d=10</tspan></text></g></g></g></g></g><path d="m68.58 67.385c0 0.66028-0.53526 1.1955-1.1955 1.1955s-1.1955-0.53526-1.1955-1.1955 0.53526-1.1955 1.1955-1.1955 1.1955 0.53526 1.1955 1.1955z" stroke="#000" stroke-miterlimit="10" stroke-width=".3985"/><g fill="#1f77b4" stroke="#1f77b4" stroke-miterlimit="10" stroke-width=".79701"><path d="m130.58 66.711c0 0.66028-0.53527 1.1955-1.1955 1.1955-0.66028 0-1.1956-0.53526-1.1956-1.1955s0.53527-1.1955 1.1956-1.1955c0.66027 0 1.1955 0.53526 1.1955 1.1955z"/><path d="m61.842 121.29c0 0.6603-0.53527 1.1955-1.1956 1.1955-0.66028 0-1.1955-0.53524-1.1955-1.1955 0-0.66027 0.53526-1.1955 1.1955-1.1955 0.66029 0 1.1956 0.53527 1.1956 1.1955z"/><path d="m31.519 12.129c0 0.66028-0.53526 1.1955-1.1955 1.1955s-1.1955-0.53526-1.1955-1.1955 0.53526-1.1956 1.1955-1.1956 1.1955 0.53527 1.1955 1.1956z"/><path d="m130.58 66.711c0 0.66028-0.53527 1.1955-1.1955 1.1955-0.66028 0-1.1956-0.53526-1.1956-1.1955s0.53527-1.1955 1.1956-1.1955c0.66027 0 1.1955 0.53526 1.1955 1.1955z"/></g><path d="m104.79 80.373c0 0.66028-0.53526 1.1955-1.1955 1.1955s-1.1955-0.53526-1.1955-1.1955 0.53526-1.1955 1.1955-1.1955 1.1955 0.53526 1.1955 1.1955z" fill="#ff7f0e" stroke="#ff7f0e" stroke-miterlimit="10" stroke-width=".79701"/><path d="m79.927 91.478c0 0.66028-0.53527 1.1956-1.1955 1.1956-0.66028 0-1.1955-0.53527-1.1955-1.1956 0-0.66029 0.53526-1.1956 1.1955-1.1956 0.66027 0 1.1955 0.53526 1.1955 1.1956z" stroke="#000" stroke-miterlimit="10" stroke-width=".79701"/><path d="m78.763 118.43c0 0.66027-0.53526 1.1955-1.1956 1.1955-0.66028 0-1.1955-0.53527-1.1955-1.1955 0-0.66029 0.53526-1.1956 1.1955-1.1956 0.6603 0 1.1956 0.53526 1.1956 1.1956z" fill="#2ca02c" stroke="#2ca02c" stroke-miterlimit="10" stroke-width=".79701"/><path d="m79.929 91.482c0 0.66028-0.53526 1.1955-1.1955 1.1955-0.6603 0-1.1956-0.53526-1.1956-1.1955 0-0.6603 0.53526-1.1956 1.1956-1.1956 0.66028 0 1.1955 0.53526 1.1955 1.1956z" stroke="#000" stroke-miterlimit="10" stroke-width=".79701"/></g></g></svg>
