<svg version="1.1" viewBox="0 0 256.28 102.91" xml:space="preserve" xmlns="http://www.w3.org/2000/svg"><defs><clipPath id="clipPath318"><path d="m11.205 0h181.94v68.555h-181.94z"/></clipPath></defs><g transform="matrix(1.3333 0 0 -1.3333 -21.075 107.42)"><g transform="translate(16.006,11.814)"><g transform="translate(-11.205)"><path d="m11.205 0h181.94v68.555h-181.94z" fill="#fff"/><path d="m20.06 0v68.555m28.657-68.555v68.555m28.657-68.555v68.555m28.657-68.555v68.555m28.657-68.555v68.555m28.657-68.555v68.555m28.657-68.555v68.555" fill="none" stroke="#bfbfbf" stroke-miterlimit="10" stroke-width=".3985"/><path d="m11.205 0h181.94m-181.94 13.711h181.94m-181.94 13.711h181.94m-181.94 13.711h181.94m-181.94 13.711h181.94m-181.94 13.711h181.94" fill="none" stroke="#bfbfbf" stroke-miterlimit="10" stroke-width=".3985"/><path d="m20.06 0v4.252m28.657-4.252v4.252m28.657-4.252v4.252m28.657-4.252v4.252m28.657-4.252v4.252m28.657-4.252v4.252m28.657-4.252v4.252m-171.94 64.303v-4.252m28.657 4.252v-4.252m28.657 4.252v-4.252m28.657 4.252v-4.252m28.657 4.252v-4.252m28.657 4.252v-4.252m28.657 4.252v-4.252" fill="none" stroke="#808080" stroke-miterlimit="10" stroke-width=".19925"/><path d="m11.205 0h4.2521m-4.2521 13.711h4.2521m-4.2521 13.711h4.2521m-4.2521 13.711h4.2521m-4.2521 13.711h4.2521m-4.2521 13.711h4.2521m177.69-68.555h-4.2521m4.2521 13.711h-4.2521m4.2521 13.711h-4.2521m4.2521 13.711h-4.2521m4.2521 13.711h-4.2521m4.2521 13.711h-4.2521" fill="none" stroke="#808080" stroke-miterlimit="10" stroke-width=".19925"/></g><path d="m-3e-4 0v68.555h181.94v-68.555z" fill="none" stroke="#000" stroke-miterlimit="10" stroke-width=".3985"/><g transform="translate(-14.887)"><g transform="translate(14.501,-8.326)"><g transform="translate(-19.302,-3.488)"><text transform="matrix(1,0,0,-1,19.302,3.488)" fill="#000000" font-family="LibertinusT1Math" font-size="7.9701px"><tspan x="0 3.7060964 7.4121928" y="0" font-family="'Linux Libertine O'">400nm</tspan></text></g></g></g><g transform="translate(-11.205)"><g transform="translate(186.44 -8.326)"><g transform="translate(-191.24 -3.488)"><text transform="scale(1,-1)" x="186.35947" y="-3.4879999" fill="#000000" font-family="LibertinusT1Math" font-size="7.9701px"><tspan x="186.35947 190.06557 193.77165" y="-3.4879999" font-family="'Linux Libertine O'">700nm</tspan></text></g></g></g><g transform="translate(-11.205)" clip-path="url(#clipPath318)"><path d="m9.8863 71.833 1.5852-5.4273 0.26678-0.92894 0.26677-0.92137 0.26677-0.91383 0.2668-0.90699 0.26677-0.9001 0.26678-0.89259 0.26677-0.88504 0.26677-0.87888 0.26679-0.87065 0.26678-0.86378 0.26679-0.85694 0.26677-0.84941 0.26678-0.84184 0.26677-0.83568 0.26679-0.82747 0.26678-0.8206 0.26677-0.81373 0.26678-0.80622 0.26679-0.79935 0.26677-0.79181 0.26678-0.78427 0.26679-0.7781 0.26676-0.76985 0.26679-0.76302 0.26679-0.75617 0.26677-0.74862 0.26678-0.74176 0.26678-0.73423 0.26677-0.72737 0.26679-0.71981 0.26678-0.71297 0.26677-0.70543 0.26678-0.69858 0.26679-0.69104 0.26677-0.68416 0.26679-0.67665 0.26678-0.66978 0.26677-0.66223 0.26679-0.6554 0.26676-0.64783 0.26679-0.64099 0.26678-0.63345 0.26678-0.62661 0.26678-0.61903 0.26677-0.61219 0.26678-0.60465 0.26679-0.59781 0.26678-0.59025 0.26676-0.58339 0.26678-0.57656 0.2668-0.56832 0.26677-0.56215 0.26677-0.5546 0.26678-0.54707 0.26677-0.54021 0.2668-0.53269 0.26679-0.52581 0.26675-0.51827 0.26679-0.51143 0.2668-0.50454 0.26677-0.49703 0.26677-0.48949 0.26678-0.48261 0.26677-0.4751 0.26678-0.46823 0.26679-0.46137 0.26677-0.45383 0.26678-0.4463 0.26679-0.43944 0.26677-0.43257 0.26678-0.42503 0.26679-0.41751 0.26677-0.41065 0.26678-0.40311 0.26678-0.39625 0.26677-0.38937 0.26679-0.38187 0.26678-0.3743 0.26677-0.36746 0.26679-0.3606 0.26678-0.35305 0.26677-0.3462 0.26679-0.33865 0.26677-0.33113 0.26678-0.32427 0.26678-0.31741 0.26679-0.30986 0.26677-0.30232 0.26678-0.29617 0.26679-0.28792 0.26677-0.28107 0.26678-0.27423 0.26677-0.26668 0.26679-0.25982 0.26676-0.25229 0.2668-0.24474 0.26678-0.23787 0.26678-0.23105 0.26678-0.22348 0.26676-0.21663 0.26678-0.2091 0.26679-0.20223 0.26678-0.1947 0.26677-0.18785 0.26678-0.18029 0.26678-0.17275 0.2668-0.16658 0.26678-0.15836 0.26676-0.15221 0.26678-0.14396 0.26678-0.1371 0.26679-0.13027 0.26677-0.12271 0.26678-0.11586 0.26678-0.10832 0.26678-0.10146 0.26678-0.09393 0.26677-0.08705 0.26679-0.0802 0.26678-0.07199 0.26677-0.06581 0.26678-0.05759 0.26677-0.05141 0.26679-0.04319 0.26679-0.03702 0.26676-0.02948 0.26679-0.02195 0.26678-0.01507 0.26677-0.00753 0.26679-7e-4 0.26678 0.00686 0.26677 0.01372 0.26679 0.02056 0.26678 0.0288 0.26675 0.03496 0.2668 0.0425 0.26679 0.0466 0.26677 0.048 0.26677 0.04936 0.26678 0.05211 0.26679 0.05346 0.26678 0.05553 0.26679 0.0569 0.26675 0.05898 0.2668 0.061 0.26678 0.06238 0.26677 0.06512 0.26677 0.06581 0.26679 0.06856 0.26677 0.06993 0.26678 0.07198 0.2668 0.07405 0.26676 0.07541 0.2668 0.07747 0.26677 0.07882 0.26677 0.08159 0.26678 0.08295 0.26678 0.08432 0.26677 0.08708 0.26679 0.08843 0.26678 0.08979 0.26677 0.09257 0.2668 0.09391 0.26677 0.09529 0.26677 0.09802 0.26679 0.09943 0.26678 0.10077 0.26677 0.1035 0.26678 0.1049 0.26679 0.10695 0.26677 0.10831 0.26678 0.11037 0.26679 0.11242 0.26677 0.11449 0.26678 0.11586 0.26679 0.11792 0.26676 0.11929 0.26679 0.12134 0.26679 0.1234 0.26676 0.12544 0.26679 0.12683 0.26678 0.12889 0.26677 0.13096 0.26679 0.13229 0.26678 0.13437 0.26675 0.13643 0.26679 0.13778 0.2668 0.13987 0.26677 0.1419 0.26677 0.14328 0.26679 0.14533 0.26678 0.1474 0.26678 0.14877 0.26679 0.15082 0.26675 0.15287 0.26679 0.15426 0.2668 0.15629 0.26677 0.15837 0.26677 0.1604 0.26678 0.16181 0.26677 0.16385 0.2668 0.1652 0.26677 0.16729 0.26677 0.16933 0.26678 0.17138 0.26678 0.17276 0.26678 0.17482 0.26678 0.17685 0.26677 0.17827 0.26679 0.1803 0.26678 0.18167 0.26677 0.1844 0.26679 0.18577 0.26678 0.18718 0.26677 0.18988 0.26679 0.19127 0.26678 0.19265 0.26677 0.19537 0.26678 0.19676 0.26679 0.19812 0.26677 0.20087 0.26678 0.20224 0.26679 0.2043 0.26677 0.20564 0.26678 0.20773 0.26679 0.20978 0.26676 0.21182 0.26679 0.21322 0.26678 0.21525 0.26677 0.21665 0.26679 0.2187 0.26678 0.22073 0.26677 0.22281 0.26679 0.22417 0.26678 0.22624 0.26676 0.22827 0.2668 0.22968 0.26678 0.2317 0.26677 0.2331 0.26678 0.23582 0.26677 0.2372 0.26677 0.23857 0.26679 0.2413 0.2668 0.24269 0.26675 0.24407 0.26679 0.2468 0.26678 0.24816 0.26679 0.25022 0.26678 0.2516 0.26677 0.25366 0.26677 0.25569 0.26678 0.25708 0.2668 0.25984 0.26676 0.2605 0.26678 0.26325 0.26679 0.26463 0.26677 0.26666 0.26678 0.26807 0.26678 0.27078 0.26678 0.27148 0.26678 0.27422 0.26679 0.27559 0.26676 0.27765 0.26679 0.27971 0.26678 0.28106 0.26677 0.28313 0.26679 0.2852 0.26678 0.28655 0.26677 0.28862 0.26679 0.29068 0.26678 0.29204 0.26677 0.29409 0.26679 0.29549 0.26678 0.29272 0.26677 0.28861 0.26677 0.28452 0.2668 0.27969 0.26677 0.27561 0.26679 0.27145 0.26678 0.26738 0.26677 0.26324 0.26678 0.25914 0.26679 0.25433 0.26677 0.25023 0.26677 0.24611 0.2668 0.24201 0.26676 0.23788 0.26679 0.23308 0.26675 0.22897 0.2668 0.22556 0.26679 0.22075 0.26675 0.21594 0.26679 0.21253 0.26678 0.20771 0.26679 0.20429 0.26677 0.19949 0.26678 0.1947 0.26677 0.19127 0.26678 0.18715 0.26679 0.18236 0.26677 0.17823 0.26678 0.17415 0.26679 0.17 0.26678 0.16591 0.26677 0.1611 0.26679 0.15767 0.26677 0.1529 0.26678 0.14875 0.26679 0.14397 0.26676 0.14055 0.26679 0.13573 0.26678 0.1323 0.26677 0.12752 0.26679 0.1234 0.26678 0.11859 0.26677 0.11519 0.26679 0.11037 0.26678 0.10626 0.26677 0.10213 0.26679 0.09803 0.26678 0.09394 0.26677 0.08912 0.26678 0.0857 0.26679 0.08088 0.26677 0.07677 0.26678 0.07199 0.26677 0.06856 0.26679 0.06375 0.26678 0.06033 0.26679 0.05554 0.26675 0.05141 0.26679 0.04662 0.2668 0.04318 0.26676 0.03841 0.26679 0.03427 0.26677 0.03016 0.26678 0.02604 0.26679 0.02194 0.26678 0.01715 0.26675 0.01372 0.26679 0.0089 0.26679 0.0048h0.26677l0.2668-0.0034 0.26676-0.0082 0.26677-0.01164 0.26679-0.01646 0.26678-0.02126 0.26677-0.02468 0.26679-0.0288 0.26679-0.03359 0.26676-0.03769 0.26679-0.04182 0.26678-0.04594 0.26677-0.05006 0.26679-0.05482 0.26678-0.05896 0.26677-0.06238 0.26678-0.06788 0.26679-0.07129 0.26677-0.07543 0.26678-0.08018 0.26679-0.08434 0.26677-0.08842 0.26678-0.09256 0.26679-0.09667 0.26677-0.10077 0.26678-0.10557 0.26677-0.10968 0.26679-0.1138 0.26678-0.11792 0.26677-0.12271 0.26678-0.12615 0.26679-0.13093 0.26677-0.13506 0.26678-0.13917 0.26679-0.14328 0.26675-0.14739 0.2668-0.15219 0.26679-0.15629 0.26676-0.16043 0.26677-0.16454 0.26679-0.16864 0.26678-0.17345 0.26679-0.17686 0.26677-0.18167 0.26677-0.18579 0.26678-0.1899 0.2668-0.1947 0.26677-0.19812 0.26677-0.20291 0.26678-0.20705 0.26679-0.21115 0.26678-0.21525 0.26677-0.22007 0.26677-0.22349 0.26679-0.22829 0.26678-0.23239 0.26677-0.23653 0.26679-0.24132 0.26678-0.24473 0.26677-0.24953 0.26678-0.25366 0.26679-0.25775 0.26677-0.26189 0.26678-0.26599 0.26679-0.2708 0.26677-0.27423 0.26678-0.27901 0.26679-0.28244 0.26677-0.27765 0.26678-0.27353 0.26678-0.26806 0.26678-0.26254 0.26678-0.25847 0.26678-0.25296 0.26676-0.24817 0.2668-0.24269 0.26678-0.23856 0.26677-0.23309 0.26679-0.22762 0.26678-0.22348 0.26677-0.218 0.26679-0.21251 0.26678-0.2084 0.26676-0.20295 0.2668-0.19812 0.26676-0.19262 0.26679-0.18854 0.26678-0.18304 0.26679-0.17756 0.26677-0.17344 0.26677-0.16797 0.26678-0.16315 0.26677-0.15766 0.2668-0.1529 0.26677-0.14809 0.26677-0.14326 0.26678-0.13779 0.2668-0.13299 0.26677-0.12822 0.26678-0.12271 0.26678-0.11791 0.26677-0.11311 0.2668-0.10764 0.26677-0.1035 0.26677-0.09736 0.26678-0.09324 0.26679-0.08773 0.26677-0.08297 0.26678-0.07815 0.26677-0.07266 0.26678-0.06856 0.26679-0.06238 0.26677-0.05829 0.26678-0.05278 0.26679-0.04797 0.26677-0.0432 0.26678-0.0377 0.26679-0.0329 0.26677-0.02811 0.26678-0.02264 0.26678-0.01781 0.26677-0.01303 0.26679-0.0075 0.26678-0.0034 0.26677 0.0021 0.26677 0.0075 0.2668 0.01164 0.26677 0.01715 0.26679 0.02263 0.26677 0.02673 0.26677 0.03222 0.2668 0.03701 0.26678 0.04251 0.26677 0.0473 0.26677 0.0521 0.2668 0.0569 0.26677 0.06239 0.26678 0.0672 0.26677 0.07196 0.26677 0.07678 0.26679 0.08226 0.26678 0.08709 0.26678 0.09254 0.26677 0.09735 0.2668 0.10214 0.26676 0.10694 0.26678 0.11244 0.26679 0.11723 0.26677 0.12203 0.26678 0.12681 0.26679 0.13232 0.26676 0.1371 0.26679 0.14262 0.2668 0.14669 0.26676 0.15219 0.26678 0.15769 0.26678 0.16179 0.26677 0.16728 0.26679 0.17274 0.26678 0.17687 0.26677 0.18236 0.26678 0.18715 0.26679 0.19195 0.26677 0.19745 0.26679 0.20224 0.26678 0.20772 0.26677 0.21184 0.26678 0.21731 0.26679 0.22211 0.26677 0.2276 0.26678 0.23242 0.26679 0.23718 0.26677 0.24201 0.26678 0.24748 0.26679 0.25229 0.26677 0.25708 0.26677 0.26257 0.26678 0.26735 0.26679 0.27216 0.26678 0.27697 0.26677 0.28244 0.26677 0.28724 0.2668 0.29205 0.26678 0.29753 0.26677 0.30234 0.26677 0.30711 0.26679 0.31261 0.26678 0.3174 0.26679 0.32222 0.26677 0.32769 0.26677 0.33181 0.26678 0.33729 0.26678 0.34278 0.26677 0.34688 0.26679 0.35237 0.26677 0.35784 0.26678 0.36199 0.26679 0.36746 0.26677 0.37224 0.26678 0.37775 0.26679 0.38183 0.26677 0.38803 0.26678 0.39212 0.26678 0.39763 0.26677 0.39967 0.26679 0.39419 0.26678 0.38801 0.26677 0.38187 0.26679 0.37498 0.26678 0.36952 0.26677 0.36335 0.26679 0.35716 0.26678 0.35099 0.26677 0.34417 0.26678 0.33865 0.26679 0.33249 0.26677 0.32564 0.26678 0.32015 0.26679 0.31397 0.26677 0.30713 0.26678 0.30164 0.26679 0.29478 0.26677 0.28931 0.26678 0.28246 0.26678 0.27694 0.26678 0.27011 0.26676 0.26462 0.2668 0.25778 0.26677 0.25159 0.26679 0.24611 0.26678 0.23927 0.26676 0.23308 0.26678 0.22691 0.26678 0.22075 0.26679 0.21526 0.26677 0.2084 0.26679 0.20224 0.26676 0.19608 0.2668 0.18988 0.26679 0.18373 0.26675 0.17756 0.26679 0.1714 0.26678 0.1652 0.26679 0.15904 0.26677 0.1529 0.26678 0.14669 0.26677 0.13987 0.26679 0.13436 0.26678 0.12819 0.26677 0.12203 0.26678 0.11517 0.26679 0.10968 0.26677 0.10353 0.26679 0.09667 0.26678 0.09117 0.26677 0.085 0.26678 0.07816 0.26679 0.07268 0.26677 0.06579 0.26678 0.06034 0.26679 0.05346 0.26676 0.04732 0.26679 0.04181 0.26679 0.03497 0.26676 0.02878 0.26679 0.02332 0.26677 0.01646 0.26678 0.01029 0.26679 0.0048 0.26678-0.0021 0.26677-0.0082 0.26679-0.0144 0.26678-0.02057 0.26677-0.02673 0.26678-0.0329 0.26676-0.03908 0.2668-0.04524 0.26678-0.05142 0.26677-0.05759 0.26677-0.06375 0.2668-0.06993 0.26677-0.0761 0.26677-0.08226 0.26679-0.08913 0.26676-0.0946 0.2668-0.10077 0.26677-0.10695 0.26677-0.1138 0.26679-0.11928 0.26678-0.12547 0.26677-0.13231 0.26679-0.13778 0.26678-0.14466 0.26677-0.15013 0.2668-0.157 0.26677-0.16247 0.26677-0.16933 0.26678-0.1748 0.26679-0.18169 0.26677-0.18784 0.26678-0.19332 0.26679-0.20018 0.26677-0.20635 0.26678-0.21184 0.26679-0.2187 0.26676-0.22485 0.26679-0.23102 0.26679-0.2372 0.26676-0.24338 0.26679-0.24884 0.26678-0.25572 0.26677-0.26189 0.26679-0.26805 0.26678-0.27421 0.26677-0.28038 0.26678-0.28725 0.26679-0.29272 0.26676-0.29891 0.2668-0.30507 0.26678-0.31123 0.26677-0.31742 0.26677-0.32426 0.26678-0.32976 0.26679-0.33591 0.26678-0.34277 0.26679-0.34825 0.26675-0.35445 0.2668-0.36127 0.26679-0.36677 0.26677-0.37363 0.26677-0.3791 0.26678-0.38596 0.26677-0.39146 0.26678-0.3983 0.2668-0.40378 0.26676-0.41066 0.26678-0.41681 0.26679-0.4223 0.26677-0.42914 0.26678-0.43532 0.26679-0.44149 0.26677-35.551h72.564" fill="none" stroke="#ff7f0e" stroke-miterlimit="10" stroke-width="1.5"/><path d="m10.267 55.683 1.2044-3.4104 0.26678-0.74245 0.26677-0.73628 0.26677-0.73012 0.2668-0.72394 0.26677-0.71777 0.26678-0.71227 0.26677-0.70544 0.26677-0.69994 0.26679-0.69377 0.26678-0.68762 0.26679-0.68143 0.26677-0.67595 0.26678-0.66908 0.26677-0.66362 0.26679-0.65744 0.26678-0.65126 0.26677-0.64511 0.26678-0.63893 0.26679-0.63346 0.26677-0.62658 0.26678-0.62111 0.26679-0.61495 0.26676-0.60876 0.26679-0.6026 0.26679-0.59711 0.26677-0.59025 0.26678-0.58478 0.26678-0.5786 0.26677-0.57244 0.26679-0.56625 0.26678-0.5601 0.26677-0.5546 0.26678-0.54775 0.26679-0.54227 0.26677-0.53611 0.26679-0.52993 0.26678-0.52376 0.26677-0.51827 0.26679-0.51143 0.26676-0.50593 0.26679-0.49976 0.26678-0.4936 0.26678-0.48742 0.26678-0.48193 0.26677-0.47509 0.26678-0.46961 0.26679-0.46343 0.26678-0.45726 0.26676-0.45109 0.26678-0.44491 0.2668-0.43874 0.26677-0.43328 0.26677-0.42711 0.26678-0.42092 0.26677-0.41475 0.2668-0.40859 0.26679-0.40241 0.26675-0.39693 0.26679-0.3901 0.2668-0.38458 0.26677-0.37843 0.26677-0.37226 0.26678-0.36676 0.26677-0.35992 0.26678-0.35443 0.26679-0.34825 0.26677-0.3414 0.26678-0.33661 0.26679-0.32974 0.26677-0.32359 0.26678-0.31809 0.26679-0.31123 0.26677-0.30576 0.26678-0.29958 0.26678-0.29342 0.26677-0.28794 0.26679-0.28106 0.26678-0.27559 0.26677-0.26943 0.26679-0.26255 0.26678-0.25777 0.26677-0.25093 0.26679-0.24474 0.26677-0.23924 0.26678-0.23309 0.26678-0.22623 0.26679-0.22075 0.26677-0.21527 0.26678-0.2084 0.26679-0.20223 0.26677-0.19676 0.26678-0.19057 0.26677-0.18442 0.26679-0.17825 0.26676-0.17206 0.2668-0.16659 0.26678-0.15973 0.26678-0.15427 0.26678-0.14807 0.26676-0.14191 0.26678-0.13572 0.26679-0.12958 0.26678-0.12409 0.26677-0.1179 0.26678-0.11107 0.26678-0.10557 0.2668-0.1001 0.26678-0.09324 0.26676-0.08706 0.26678-0.08159 0.26678-0.07538 0.26679-0.06855 0.26677-0.06377 0.26678-0.0569 0.26678-0.05072 0.26678-0.04524 0.26678-0.03841 0.26677-0.03291 0.26679-0.02672 0.26678-0.02057 0.26677-0.01509 0.26678-0.00823 0.26677-0.00274 0.26679 0.00412 0.26679 0.0096 0.26676 0.01576 0.26679 0.02125 0.26678 0.02811 0.26677 0.03358 0.26679 0.04046 0.26678 0.04592 0.26677 0.05211 0.26679 0.05826 0.26678 0.06377 0.26675 0.0706 0.2668 0.07611 0.26679 0.07883 0.26677 0.08021 0.26677 0.08089 0.26678 0.08228 0.26679 0.08296 0.26678 0.08362 0.26679 0.085 0.26675 0.0857 0.2668 0.08706 0.26678 0.08776 0.26677 0.08912 0.26677 0.08982 0.26679 0.09115 0.26677 0.09187 0.26678 0.09255 0.2668 0.09393 0.26676 0.09461 0.2668 0.09596 0.26677 0.09666 0.26677 0.09804 0.26678 0.09873 0.26678 0.09939 0.26677 0.10079 0.26679 0.10215 0.26678 0.10282 0.26677 0.10351 0.2668 0.10489 0.26677 0.10558 0.26677 0.10626 0.26679 0.10764 0.26678 0.10899 0.26677 0.10971 0.26678 0.11035 0.26679 0.11174 0.26677 0.11244 0.26678 0.1138 0.26679 0.11449 0.26677 0.11517 0.26678 0.11655 0.26679 0.11791 0.26676 0.1186 0.26679 0.11928 0.26679 0.12065 0.26676 0.12135 0.26679 0.1227 0.26678 0.12341 0.26677 0.12409 0.26679 0.12545 0.26678 0.12684 0.26675 0.12751 0.26679 0.12818 0.2668 0.12957 0.26677 0.13027 0.26677 0.13162 0.26679 0.1323 0.26678 0.13301 0.26678 0.13438 0.26679 0.13504 0.26675 0.13641 0.26679 0.13781 0.2668 0.1378 0.26677 0.13916 0.26677 0.14053 0.26678 0.14124 0.26677 0.14189 0.2668 0.14328 0.26677 0.14465 0.26677 0.14534 0.26678 0.14603 0.26678 0.1467 0.53356 0.29753 0.26677 0.15013 0.26679 0.1515 0.26678 0.15152 0.26677 0.15357 0.26679 0.15425 0.26678 0.15492 0.26677 0.15563 0.26679 0.15766 0.26678 0.15769 0.26677 0.15904 0.26678 0.15973 0.26679 0.1611 0.26677 0.16248 0.26678 0.16247 0.26679 0.16385 0.26677 0.16522 0.26678 0.1659 0.26679 0.16728 0.26676 0.16795 0.26679 0.16866 0.26678 0.17001 0.26677 0.17069 0.26679 0.17209 0.26678 0.17276 0.26677 0.17411 0.26679 0.17482 0.26678 0.1755 0.26676 0.17688 0.2668 0.17756 0.26678 0.17893 0.26677 0.17961 0.26678 0.18097 0.26677 0.18168 0.26677 0.18303 0.26679 0.18373 0.2668 0.18442 0.26675 0.18579 0.26679 0.18646 0.26678 0.18784 0.26679 0.18854 0.26678 0.18989 0.26677 0.19057 0.26677 0.19128 0.26678 0.19263 0.2668 0.19402 0.26676 0.19468 0.26678 0.19539 0.26679 0.19677 0.26677 0.19743 0.26678 0.19879 0.26678 0.19949 0.26678 0.2002 0.26678 0.20155 0.26679 0.20224 0.26676 0.20362 0.26679 0.20426 0.26678 0.20568 0.26677 0.20636 0.26679 0.20772 0.26678 0.2084 0.26677 0.20908 0.26679 0.21048 0.26678 0.21183 0.26677 0.21183 0.26679 0.21321 0.26678 0.21184 0.26677 0.20979 0.26677 0.20701 0.2668 0.20567 0.26677 0.20293 0.26679 0.20087 0.26678 0.19879 0.26677 0.19676 0.26678 0.194 0.26679 0.19196 0.26677 0.1906 0.26677 0.18783 0.2668 0.18578 0.26676 0.18373 0.26679 0.18098 0.26675 0.17963 0.2668 0.17685 0.26679 0.17484 0.26675 0.17274 0.26679 0.17071 0.26678 0.16863 0.26679 0.16592 0.26677 0.16451 0.26678 0.1618 0.26677 0.15975 0.26678 0.15767 0.26679 0.15562 0.26677 0.15355 0.26678 0.15082 0.26679 0.14877 0.26678 0.14739 0.26677 0.14465 0.26679 0.14259 0.26677 0.13985 0.26678 0.13848 0.26679 0.13575 0.26676 0.13367 0.26679 0.13232 0.26678 0.12888 0.26677 0.12752 0.26679 0.12544 0.26678 0.12272 0.26677 0.12136 0.26679 0.11859 0.26678 0.11655 0.26677 0.11447 0.26679 0.11175 0.26678 0.11038 0.26677 0.10762 0.26678 0.10627 0.26679 0.10351 0.26677 0.10146 0.26678 0.09872 0.26677 0.09735 0.26679 0.0953 0.26678 0.09254 0.26679 0.0905 0.26675 0.08843 0.26679 0.08637 0.2668 0.08433 0.26676 0.08158 0.26679 0.0802 0.26677 0.07749 0.26678 0.07539 0.26679 0.07335 0.26678 0.0713 0.26675 0.06856 0.26679 0.06719 0.26679 0.06445 0.26677 0.06238 0.2668 0.06033 0.26676 0.05826 0.26677 0.05622 0.26679 0.05347 0.26678 0.05211 0.26677 0.04935 0.26679 0.0473 0.26679 0.04526 0.26676 0.04318 0.26679 0.04045 0.26678 0.03907 0.26677 0.03634 0.26679 0.03429 0.26678 0.03221 0.26677 0.03015 0.26678 0.02812 0.26679 0.02535 0.26677 0.024 0.26678 0.02125 0.26679 0.01922 0.26677 0.01712 0.26678 0.01509 0.26679 0.01234 0.26677 0.01096 0.26678 0.0082 0.26677 0.0062 0.26679 0.0041 0.26678 0.0021h0.26677l0.26678-0.0027 0.26679-0.0048 0.26677-0.0062 0.26678-0.0089 0.26679-0.01096 0.26675-0.0137 0.2668-0.01511 0.26679-0.0178 0.26676-0.01921 0.26677-0.02193 0.26679-0.02399 0.26678-0.02606 0.26679-0.02879 0.26677-0.03017 0.26677-0.03291 0.26678-0.03494 0.2668-0.03634 0.26677-0.03976 0.26677-0.04114 0.26678-0.0432 0.26679-0.04591 0.26678-0.048 0.26677-0.04937 0.26677-0.05209 0.26679-0.05484 0.26678-0.05623 0.26677-0.05826 0.26679-0.061 0.26678-0.0631 0.26677-0.06512 0.26678-0.06719 0.26679-0.06924 0.26677-0.07196 0.26678-0.07336 0.26679-0.07609 0.26677-0.07815 0.26678-0.08023 0.26679-0.08225 0.26677-0.08227 0.26678-0.08296 0.26678-0.08364 0.26678-0.08363 0.26678-0.08431 0.26678-0.08433 0.26676-0.08503 0.2668-0.08498 0.26678-0.0857 0.26677-0.08569 0.26679-0.0864 0.26678-0.08636 0.26677-0.0864 0.26679-0.08773 0.26678-0.08707 0.26676-0.08844 0.2668-0.08775 0.26676-0.08843 0.26679-0.08913 0.26678-0.08911 0.26679-0.08981 0.26677-0.0898 0.26677-0.0905 0.26678-0.0905 0.26677-0.09117 0.2668-0.09117 0.26677-0.09187 0.26677-0.09186 0.26678-0.09256 0.2668-0.09255 0.26677-0.09322 0.26678-0.09324 0.26678-0.09392 0.26677-0.0946 0.2668-0.09392 0.26677-0.0953 0.26677-0.09461 0.26678-0.09598 0.26679-0.09529 0.26677-0.09664 0.26678-0.09669 0.26677-0.09665 0.26678-0.09735 0.26679-0.09735 0.26677-0.09804 0.26678-0.09802 0.26679-0.09872 0.26677-0.09873 0.26678-0.09939 0.26679-0.1001 0.26677-0.09941 0.53356-0.20154 0.26677-0.10078 0.26679-0.10146 0.26678-0.10147 0.26677-0.10213 0.26677-0.10216 0.2668-0.10284 0.26677-0.1035 0.26679-0.10353 0.26677-0.10352 0.26677-0.10418 0.2668-0.10422 0.26678-0.10487 0.26677-0.10489 0.26677-0.10558 0.80035-0.31878 0.53354-0.2139 0.26679-0.10764 0.26678-0.10831 0.26678-0.1083 0.26677-0.10834 0.2668-0.10899 0.26676-0.10968 0.26678-0.10968 0.26679-0.10971 0.26677-0.11039 0.26678-0.11036 0.26679-0.11104 0.26676-0.11176 0.26679-0.11174 0.2668-0.11174 0.26676-0.11244 0.80033-0.33934 0.26679-0.1138 0.26678-0.11449 0.53355-0.22897 0.26679-0.11518 0.53356-0.23171 0.26678-0.11585 0.26677-0.11654 0.26678-0.11724 0.53356-0.23446 0.26678-0.11792 0.53356-0.2372 0.26678-0.11926 0.53356-0.23859 0.26677-0.11998 0.26678-0.12064 0.26679-0.12066 0.26678-0.12065 0.26677-0.12203 0.26677-0.12134 0.2668-0.12202 0.26678-0.12271 0.26677-0.12273 0.26677-0.12271 0.26679-0.12408 0.26678-0.12342 0.26679-0.12406 0.26677-0.12478 0.26677-0.12477 0.80033-0.37637 0.26679-0.12613 0.26677-0.12683 0.26678-0.12683 0.26679-0.12752 0.26677-0.1275 0.26678-0.12821 0.53356-0.25638 0.26678-0.12958 0.26678-0.12887 0.26677-0.12891 0.26679-0.1268 0.26678-0.12341 0.26677-0.12067 0.26679-0.11721 0.26678-0.11518 0.26677-0.11241 0.26679-0.10902 0.26678-0.10625 0.26677-0.1042 0.26678-0.10079 0.26679-0.09803 0.26677-0.09461 0.26678-0.09254 0.26679-0.0898 0.26677-0.08638 0.26678-0.08365 0.26679-0.08089 0.26677-0.07817 0.26678-0.07538 0.26678-0.07269 0.26678-0.06991 0.26676-0.0665 0.2668-0.06444 0.26677-0.06102 0.26679-0.05827 0.26678-0.05555 0.26676-0.05278 0.26678-0.05003 0.26678-0.04663 0.26679-0.04456 0.26677-0.04113 0.26679-0.03839 0.26676-0.03565 0.2668-0.0329 0.26679-0.03016 0.26675-0.02744 0.26679-0.02468 0.26678-0.02123 0.26679-0.01853 0.26677-0.01644 0.26678-0.01304 0.26677-0.01026 0.26679-0.0075 0.26678-0.0041 0.26677-0.0021 0.26678 0.0014 0.26679 0.0034 0.26677 0.0068 0.26679 0.0096 0.26678 0.01235 0.26677 0.01507 0.26678 0.01851 0.26679 0.02057 0.26677 0.024 0.26678 0.02603 0.26679 0.02948 0.26676 0.03223 0.26679 0.03497 0.26679 0.03771 0.26676 0.04112 0.26679 0.0432 0.26677 0.0466 0.26678 0.04936 0.26679 0.05142 0.26678 0.05484 0.26677 0.05759 0.26679 0.06102 0.26678 0.06308 0.26677 0.0665 0.26678 0.06855 0.26676 0.07198 0.2668 0.07472 0.26678 0.07747 0.26677 0.0802 0.26677 0.08296 0.2668 0.0857 0.26677 0.08911 0.26677 0.09187 0.26679 0.09393 0.26676 0.09734 0.2668 0.10008 0.26677 0.10283 0.26677 0.10626 0.26679 0.10831 0.26678 0.11176 0.26677 0.1138 0.26679 0.11723 0.26678 0.11996 0.26677 0.12271 0.2668 0.12546 0.26677 0.12821 0.26677 0.13162 0.26678 0.13368 0.26679 0.1371 0.26677 0.13986 0.26678 0.1426 0.26679 0.14534 0.26677 0.14807 0.26678 0.15081 0.26679 0.15427 0.26676 0.1563 0.26679 0.15973 0.26679 0.16247 0.26676 0.16523 0.26679 0.16795 0.26678 0.1707 0.26677 0.17345 0.26679 0.17688 0.26678 0.17959 0.26677 0.18169 0.26678 0.18509 0.26679 0.18783 0.26676 0.1906 0.2668 0.19332 0.26678 0.19676 0.26677 0.1988 0.26677 0.20223 0.26678 0.20498 0.26679 0.20703 0.26678 0.21048 0.26679 0.21389 0.26675 0.21594 0.2668 0.2187 0.26679 0.22211 0.26677 0.22417 0.26677 0.22761 0.26678 0.23033 0.26677 0.2331 0.26678 0.23581 0.2668 0.23858 0.26676 0.24201 0.26678 0.24405 0.26679 0.24748 0.26677 0.25023 0.26678 0.25296 0.26679 0.25572 0.26677-30.133h72.564" fill="none" stroke="#2ca02c" stroke-miterlimit="10" stroke-width="1.5"/></g></g></g></svg>
